<svg xmlns="http://www.w3.org/2000/svg" xmlns:xlink="http://www.w3.org/1999/xlink" width="500" zoomAndPan="magnify" viewBox="0 0 375 299.999988" height="400" preserveAspectRatio="xMidYMid meet" version="1.0"><defs><g/></defs><g fill="#000000" fill-opacity="1"><g transform="translate(7.500007, 162.906922)"><g><path d="M 3.046875 -64.765625 C 3.046875 -70.253906 3.40625 -75.546875 4.125 -80.640625 C 4.738281 -85.734375 6.46875 -90.316406 9.3125 -94.390625 C 12.164062 -98.359375 16.441406 -101.617188 22.140625 -104.171875 C 27.847656 -106.710938 35.789062 -108.1875 45.96875 -108.59375 L 49.328125 -108.59375 C 57.984375 -108.59375 64.859375 -107.320312 69.953125 -104.78125 C 74.941406 -102.125 78.757812 -98.757812 81.40625 -94.6875 C 83.945312 -90.519531 85.578125 -85.835938 86.296875 -80.640625 C 87.003906 -75.453125 87.359375 -70.257812 87.359375 -65.0625 L 87.828125 -40.015625 C 87.828125 -34.617188 87.519531 -29.320312 86.90625 -24.125 C 86.195312 -18.832031 84.46875 -14.148438 81.71875 -10.078125 C 78.863281 -5.898438 74.585938 -2.539062 68.890625 0 C 63.078125 2.539062 55.082031 3.8125 44.90625 3.8125 C 35.4375 3.8125 28.050781 2.539062 22.75 0 C 17.351562 -2.539062 13.28125 -5.898438 10.53125 -10.078125 C 7.789062 -14.148438 6.007812 -18.832031 5.1875 -24.125 C 4.375 -29.320312 3.816406 -34.566406 3.515625 -39.859375 Z M 45.359375 -69.796875 C 41.691406 -69.492188 38.992188 -68.882812 37.265625 -67.96875 C 35.429688 -66.945312 34.207031 -65.316406 33.59375 -63.078125 C 32.882812 -60.734375 32.582031 -57.679688 32.6875 -53.921875 C 32.789062 -50.046875 32.84375 -45.207031 32.84375 -39.40625 C 32.84375 -35.84375 32.890625 -32.6875 32.984375 -29.9375 C 33.085938 -27.082031 33.5 -24.6875 34.21875 -22.75 C 34.925781 -20.71875 35.992188 -19.191406 37.421875 -18.171875 C 38.847656 -17.148438 40.9375 -16.640625 43.6875 -16.640625 L 45.0625 -16.640625 C 48.21875 -16.847656 50.609375 -17.460938 52.234375 -18.484375 C 53.859375 -19.398438 55.03125 -20.820312 55.75 -22.75 C 56.363281 -24.582031 56.71875 -26.925781 56.8125 -29.78125 C 56.914062 -32.53125 57.019531 -35.738281 57.125 -39.40625 C 57.320312 -45.007812 57.472656 -49.742188 57.578125 -53.609375 C 57.679688 -57.472656 57.476562 -60.628906 56.96875 -63.078125 C 56.457031 -65.523438 55.59375 -67.304688 54.375 -68.421875 C 53.050781 -69.441406 51.066406 -69.953125 48.421875 -69.953125 L 46.890625 -69.953125 C 46.378906 -69.953125 45.867188 -69.898438 45.359375 -69.796875 Z M 45.359375 -69.796875 "/></g></g></g><g fill="#000000" fill-opacity="1"><g transform="translate(98.373408, 162.906922)"><g><path d="M 3.359375 -105.234375 L 46.4375 -107.21875 C 49.59375 -107.21875 52.695312 -107.066406 55.75 -106.765625 C 58.695312 -106.453125 61.546875 -105.890625 64.296875 -105.078125 C 66.941406 -104.160156 69.488281 -102.941406 71.9375 -101.421875 C 74.382812 -99.785156 76.625 -97.644531 78.65625 -95 C 80.488281 -92.65625 82.015625 -89.242188 83.234375 -84.765625 C 84.460938 -80.179688 85.378906 -75.09375 85.984375 -69.5 C 86.492188 -63.894531 86.75 -58.035156 86.75 -51.921875 C 86.644531 -45.710938 86.289062 -39.859375 85.6875 -34.359375 C 85.070312 -28.765625 84.15625 -23.773438 82.9375 -19.390625 C 81.71875 -14.910156 80.238281 -11.550781 78.5 -9.3125 C 75.75 -5.75 72.085938 -2.796875 67.515625 -0.453125 C 62.929688 1.878906 57.125 3.046875 50.09375 3.046875 L 48.109375 3.046875 C 47.492188 3.046875 46.832031 3 46.125 2.90625 L 3.203125 0 Z M 43.828125 -71.171875 C 43.222656 -71.171875 42.304688 -71.117188 41.078125 -71.015625 C 39.859375 -70.921875 38.585938 -70.875 37.265625 -70.875 C 35.941406 -70.769531 34.71875 -70.664062 33.59375 -70.5625 C 32.476562 -70.457031 31.71875 -70.304688 31.3125 -70.109375 L 31.3125 -22.453125 C 32.019531 -22.242188 33.546875 -22.09375 35.890625 -22 C 38.128906 -21.894531 40.066406 -21.84375 41.703125 -21.84375 L 43.53125 -21.84375 C 46.6875 -22.039062 49.078125 -22.703125 50.703125 -23.828125 C 52.335938 -24.847656 53.507812 -26.273438 54.21875 -28.109375 C 54.832031 -29.835938 55.191406 -31.875 55.296875 -34.21875 C 55.390625 -36.457031 55.488281 -38.847656 55.59375 -41.390625 C 55.894531 -46.378906 56.097656 -50.757812 56.203125 -54.53125 C 56.203125 -58.195312 55.945312 -61.300781 55.4375 -63.84375 C 54.925781 -66.289062 53.960938 -68.175781 52.546875 -69.5 C 51.117188 -70.71875 49.03125 -71.328125 46.28125 -71.328125 L 45.203125 -71.328125 C 44.796875 -71.328125 44.335938 -71.273438 43.828125 -71.171875 Z M 43.828125 -71.171875 "/></g></g></g><g fill="#000000" fill-opacity="1"><g transform="translate(188.94135, 162.906922)"><g><path d="M 3.359375 -105.234375 L 46.4375 -107.21875 C 49.59375 -107.21875 52.695312 -107.066406 55.75 -106.765625 C 58.695312 -106.453125 61.546875 -105.890625 64.296875 -105.078125 C 66.941406 -104.160156 69.488281 -102.941406 71.9375 -101.421875 C 74.382812 -99.785156 76.625 -97.644531 78.65625 -95 C 80.488281 -92.65625 82.015625 -89.242188 83.234375 -84.765625 C 84.460938 -80.179688 85.378906 -75.09375 85.984375 -69.5 C 86.492188 -63.894531 86.75 -58.035156 86.75 -51.921875 C 86.644531 -45.710938 86.289062 -39.859375 85.6875 -34.359375 C 85.070312 -28.765625 84.15625 -23.773438 82.9375 -19.390625 C 81.71875 -14.910156 80.238281 -11.550781 78.5 -9.3125 C 75.75 -5.75 72.085938 -2.796875 67.515625 -0.453125 C 62.929688 1.878906 57.125 3.046875 50.09375 3.046875 L 48.109375 3.046875 C 47.492188 3.046875 46.832031 3 46.125 2.90625 L 3.203125 0 Z M 43.828125 -71.171875 C 43.222656 -71.171875 42.304688 -71.117188 41.078125 -71.015625 C 39.859375 -70.921875 38.585938 -70.875 37.265625 -70.875 C 35.941406 -70.769531 34.71875 -70.664062 33.59375 -70.5625 C 32.476562 -70.457031 31.71875 -70.304688 31.3125 -70.109375 L 31.3125 -22.453125 C 32.019531 -22.242188 33.546875 -22.09375 35.890625 -22 C 38.128906 -21.894531 40.066406 -21.84375 41.703125 -21.84375 L 43.53125 -21.84375 C 46.6875 -22.039062 49.078125 -22.703125 50.703125 -23.828125 C 52.335938 -24.847656 53.507812 -26.273438 54.21875 -28.109375 C 54.832031 -29.835938 55.191406 -31.875 55.296875 -34.21875 C 55.390625 -36.457031 55.488281 -38.847656 55.59375 -41.390625 C 55.894531 -46.378906 56.097656 -50.757812 56.203125 -54.53125 C 56.203125 -58.195312 55.945312 -61.300781 55.4375 -63.84375 C 54.925781 -66.289062 53.960938 -68.175781 52.546875 -69.5 C 51.117188 -70.71875 49.03125 -71.328125 46.28125 -71.328125 L 45.203125 -71.328125 C 44.796875 -71.328125 44.335938 -71.273438 43.828125 -71.171875 Z M 43.828125 -71.171875 "/></g></g></g><g fill="#000000" fill-opacity="1"><g transform="translate(279.509291, 162.906922)"><g><path d="M 44.140625 -10.53125 C 46.378906 -10.53125 48.3125 -10.6875 49.9375 -11 C 51.46875 -11.300781 52.742188 -12.21875 53.765625 -13.75 C 54.785156 -15.175781 55.5 -17.363281 55.90625 -20.3125 C 56.207031 -23.269531 56.207031 -27.34375 55.90625 -32.53125 L 42.3125 -32.53125 C 39.050781 -32.53125 36.195312 -32.582031 33.75 -32.6875 C 31.3125 -32.6875 29.070312 -32.835938 27.03125 -33.140625 C 24.894531 -33.347656 22.960938 -33.707031 21.234375 -34.21875 C 19.398438 -34.625 17.460938 -35.234375 15.421875 -36.046875 C 10.429688 -37.878906 6.921875 -40.984375 4.890625 -45.359375 C 2.753906 -49.734375 1.6875 -55.992188 1.6875 -64.140625 C 1.6875 -66.078125 1.632812 -68.472656 1.53125 -71.328125 C 1.425781 -74.179688 1.628906 -77.1875 2.140625 -80.34375 C 2.546875 -83.5 3.410156 -86.703125 4.734375 -89.953125 C 6.054688 -93.109375 8.144531 -96.0625 11 -98.8125 C 14.257812 -101.96875 18.535156 -104.566406 23.828125 -106.609375 C 29.117188 -108.546875 36.347656 -109.515625 45.515625 -109.515625 C 50.398438 -109.515625 54.726562 -109.054688 58.5 -108.140625 C 62.164062 -107.117188 65.421875 -105.796875 68.265625 -104.171875 C 71.117188 -102.429688 73.566406 -100.492188 75.609375 -98.359375 C 77.535156 -96.117188 79.160156 -93.726562 80.484375 -91.1875 C 82.628906 -87.113281 84.054688 -82.882812 84.765625 -78.5 C 85.378906 -74.125 85.6875 -70.101562 85.6875 -66.4375 C 85.582031 -62.164062 85.175781 -57.992188 84.46875 -53.921875 L 54.375 -53.921875 L 54.375 -67.359375 C 54.375 -71.429688 53.914062 -74.585938 53 -76.828125 C 51.976562 -79.066406 49.6875 -80.1875 46.125 -80.1875 C 45.3125 -80.1875 44.445312 -80.132812 43.53125 -80.03125 C 42.613281 -79.832031 41.59375 -79.628906 40.46875 -79.421875 C 37.925781 -78.804688 36.144531 -77.738281 35.125 -76.21875 C 34.007812 -74.6875 33.347656 -72.851562 33.140625 -70.71875 C 32.835938 -68.582031 32.785156 -66.289062 32.984375 -63.84375 C 33.191406 -61.300781 33.296875 -58.859375 33.296875 -56.515625 C 33.296875 -53.453125 34.160156 -51.109375 35.890625 -49.484375 C 37.523438 -47.753906 39.816406 -46.890625 42.765625 -46.890625 C 45.109375 -46.890625 47.347656 -46.941406 49.484375 -47.046875 C 51.523438 -47.046875 53.5625 -47.046875 55.59375 -47.046875 C 60.175781 -47.046875 64.351562 -46.84375 68.125 -46.4375 C 71.882812 -45.925781 75.140625 -44.90625 77.890625 -43.375 C 80.640625 -41.75 82.78125 -39.359375 84.3125 -36.203125 C 85.738281 -33.046875 86.453125 -28.71875 86.453125 -23.21875 C 86.453125 -18.9375 85.6875 -15.320312 84.15625 -12.375 C 82.53125 -9.414062 80.441406 -6.972656 77.890625 -5.046875 C 75.242188 -3.003906 72.289062 -1.425781 69.03125 -0.3125 C 65.769531 0.8125 62.515625 1.628906 59.265625 2.140625 C 55.898438 2.648438 52.691406 2.953125 49.640625 3.046875 C 46.484375 3.253906 43.835938 3.359375 41.703125 3.359375 C 36.503906 3.359375 32.019531 2.898438 28.25 1.984375 C 24.382812 1.066406 21.078125 -0.101562 18.328125 -1.53125 C 15.578125 -2.957031 13.335938 -4.632812 11.609375 -6.5625 C 9.773438 -8.394531 8.347656 -10.28125 7.328125 -12.21875 C 4.785156 -16.800781 3.664062 -21.992188 3.96875 -27.796875 L 34.96875 -25.359375 C 34.96875 -23.015625 35.070312 -20.925781 35.28125 -19.09375 C 35.382812 -17.257812 35.738281 -15.734375 36.34375 -14.515625 C 36.957031 -13.191406 37.875 -12.222656 39.09375 -11.609375 C 40.21875 -10.890625 41.796875 -10.53125 43.828125 -10.53125 Z M 44.140625 -10.53125 "/></g></g></g><g fill="#000000" fill-opacity="1"><g transform="translate(39.666326, 243.089072)"><g><path d="M -6.3125 -26.328125 L -10.34375 -40.359375 L 19.609375 -49.609375 L 23.8125 -35.609375 L 15.515625 -33.046875 L 23.265625 -6.6875 L 10.265625 -2.953125 L 3.046875 -29.203125 Z M -6.3125 -26.328125 "/></g></g></g><g fill="#000000" fill-opacity="1"><g transform="translate(70.489924, 234.429732)"><g><path d="M 3.984375 -44.359375 L 12.171875 -2.875 L 1.359375 -0.3125 L -8.390625 -40.828125 Z M 3.984375 -44.359375 "/></g></g></g><g fill="#000000" fill-opacity="1"><g transform="translate(83.773155, 230.731783)"><g><path d="M -4.734375 -41.453125 L 10.328125 -44.640625 C 10.316406 -44.742188 10.609375 -43.992188 11.203125 -42.390625 C 11.804688 -40.785156 12.597656 -38.65625 13.578125 -36 C 14.566406 -33.3125 15.695312 -30.300781 16.96875 -26.96875 C 18.195312 -23.582031 19.460938 -20.242188 20.765625 -16.953125 L 20.625 -45.765625 L 36.578125 -49.125 L 45.65625 -7.78125 L 33.5 -5.703125 L 27.078125 -31.5625 L 28.046875 -5.390625 L 20.796875 -3.734375 L 9.875 -28.625 L 13.859375 -2.359375 L 1.1875 -0.203125 Z M -4.734375 -41.453125 "/></g></g></g><g fill="#000000" fill-opacity="1"><g transform="translate(128.939833, 223.299814)"><g><path d="M 1.203125 -0.109375 L -2.5625 -41.59375 L 25.390625 -44.75 L 26.46875 -32.953125 L 9.390625 -30.796875 L 9.859375 -25.640625 L 23.328125 -28.0625 L 24.34375 -16.9375 L 10.765625 -15.09375 L 11.234375 -9.875 L 28.3125 -12.625 L 29.21875 -2.65625 Z M 1.203125 -0.109375 "/></g></g></g><g fill="#000000" fill-opacity="1"><g transform="translate(158.023699, 220.742367)"><g/></g></g><g fill="#000000" fill-opacity="1"><g transform="translate(177.783392, 219.80745)"><g><path d="M 18.125 -20.609375 C 18.132812 -21.054688 17.957031 -21.523438 17.59375 -22.015625 C 17.238281 -22.492188 16.703125 -22.738281 15.984375 -22.75 C 15.816406 -22.75 15.65625 -22.726562 15.5 -22.6875 C 15.289062 -22.65625 15.085938 -22.601562 14.890625 -22.53125 C 14.359375 -22.332031 13.992188 -22.050781 13.796875 -21.6875 C 13.546875 -21.332031 13.378906 -20.894531 13.296875 -20.375 C 13.203125 -19.8125 13.171875 -19.164062 13.203125 -18.4375 C 13.203125 -17.71875 13.195312 -16.929688 13.1875 -16.078125 C 13.175781 -15.472656 13.25 -15.015625 13.40625 -14.703125 C 13.519531 -14.335938 13.675781 -14.046875 13.875 -13.828125 C 14.070312 -13.628906 14.296875 -13.507812 14.546875 -13.46875 C 14.742188 -13.394531 14.921875 -13.351562 15.078125 -13.34375 C 15.242188 -13.34375 15.347656 -13.359375 15.390625 -13.390625 L 15.5 -13.390625 L 19.546875 -13.34375 C 21.117188 -13.320312 22.546875 -13.25 23.828125 -13.125 C 25.109375 -12.976562 26.234375 -12.703125 27.203125 -12.296875 C 28.117188 -11.835938 28.832031 -11.179688 29.34375 -10.328125 C 29.820312 -9.441406 30.054688 -8.253906 30.046875 -6.765625 C 30.015625 -4.992188 29.46875 -3.585938 28.40625 -2.546875 C 27.3125 -1.515625 25.992188 -0.726562 24.453125 -0.1875 C 22.921875 0.351562 21.3125 0.695312 19.625 0.84375 C 17.882812 0.976562 16.347656 1.039062 15.015625 1.03125 C 13.441406 1.007812 12.0625 0.847656 10.875 0.546875 C 9.664062 0.296875 8.617188 -0.0546875 7.734375 -0.515625 C 6.816406 -0.960938 6.0625 -1.472656 5.46875 -2.046875 C 4.820312 -2.578125 4.28125 -3.144531 3.84375 -3.75 C 2.863281 -5.09375 2.285156 -6.628906 2.109375 -8.359375 L 13.625 -7.609375 C 13.613281 -7.003906 13.609375 -6.460938 13.609375 -5.984375 C 13.554688 -5.515625 13.566406 -5.09375 13.640625 -4.71875 C 13.710938 -4.351562 13.890625 -4.09375 14.171875 -3.9375 C 14.410156 -3.726562 14.8125 -3.617188 15.375 -3.609375 L 15.859375 -3.609375 C 16.628906 -3.679688 17.210938 -3.753906 17.609375 -3.828125 C 18.015625 -3.910156 18.320312 -4.128906 18.53125 -4.484375 C 18.695312 -4.835938 18.785156 -5.414062 18.796875 -6.21875 C 18.804688 -6.988281 18.78125 -8.082031 18.71875 -9.5 L 15.453125 -9.53125 C 14.453125 -9.539062 13.566406 -9.570312 12.796875 -9.625 C 12.035156 -9.632812 11.3125 -9.6875 10.625 -9.78125 C 9.90625 -9.832031 9.179688 -9.921875 8.453125 -10.046875 C 7.691406 -10.171875 6.847656 -10.335938 5.921875 -10.546875 C 4.285156 -10.929688 3.128906 -11.753906 2.453125 -13.015625 C 1.742188 -14.265625 1.398438 -16 1.421875 -18.21875 C 1.429688 -18.78125 1.484375 -19.484375 1.578125 -20.328125 C 1.628906 -21.128906 1.800781 -21.992188 2.09375 -22.921875 C 2.382812 -23.796875 2.835938 -24.695312 3.453125 -25.625 C 4.066406 -26.5 4.941406 -27.296875 6.078125 -28.015625 C 7.210938 -28.710938 8.644531 -29.273438 10.375 -29.703125 C 12.125 -30.117188 14.242188 -30.3125 16.734375 -30.28125 C 18.628906 -30.257812 20.273438 -30.039062 21.671875 -29.625 C 23.035156 -29.164062 24.195312 -28.585938 25.15625 -27.890625 C 26.113281 -27.160156 26.890625 -26.347656 27.484375 -25.453125 C 28.035156 -24.515625 28.488281 -23.582031 28.84375 -22.65625 C 29.570312 -20.4375 29.800781 -17.9375 29.53125 -15.15625 L 18.171875 -15.296875 Z M 18.125 -20.609375 "/></g></g></g><g fill="#000000" fill-opacity="1"><g transform="translate(206.931368, 220.079019)"><g><path d="M 16.015625 -41.171875 L 13.65625 -20.28125 C 14.101562 -21.457031 14.691406 -22.597656 15.421875 -23.703125 C 16.140625 -24.785156 16.941406 -25.757812 17.828125 -26.625 C 18.691406 -27.488281 19.632812 -28.160156 20.65625 -28.640625 C 21.644531 -29.128906 22.664062 -29.332031 23.71875 -29.25 C 26.601562 -29.03125 28.75 -28.332031 30.15625 -27.15625 C 31.507812 -25.914062 32.375 -24.050781 32.75 -21.5625 C 33.082031 -19.0625 33.0625 -15.851562 32.6875 -11.9375 C 32.269531 -8.007812 31.726562 -3.226562 31.0625 2.40625 L 19.09375 1.5 C 19.257812 0.664062 19.476562 -0.425781 19.75 -1.78125 C 19.976562 -3.132812 20.207031 -4.613281 20.4375 -6.21875 C 20.644531 -7.757812 20.832031 -9.359375 21 -11.015625 C 21.15625 -12.609375 21.242188 -14.070312 21.265625 -15.40625 C 21.242188 -16.738281 21.125 -17.832031 20.90625 -18.6875 C 20.695312 -19.519531 20.3125 -19.957031 19.75 -20 C 18.34375 -20.101562 17.0625 -19.8125 15.90625 -19.125 C 14.726562 -18.414062 13.84375 -17.597656 13.25 -16.671875 L 11.265625 0.859375 L 1.390625 0.109375 L 1.828125 -5.609375 C 1.984375 -7.691406 2.144531 -9.859375 2.3125 -12.109375 C 2.445312 -14.367188 2.597656 -16.664062 2.765625 -19 L 3.28125 -25.671875 C 3.625 -30.773438 3.976562 -35.988281 4.34375 -41.3125 Z M 16.015625 -41.171875 "/></g></g></g><g fill="#000000" fill-opacity="1"><g transform="translate(238.155339, 222.417146)"><g><path d="M 31.59375 -8.421875 C 31.300781 -6.628906 30.882812 -4.941406 30.34375 -3.359375 C 29.757812 -1.734375 28.875 -0.351562 27.6875 0.78125 C 26.476562 1.914062 24.882812 2.726562 22.90625 3.21875 C 20.863281 3.738281 18.25 3.773438 15.0625 3.328125 C 11.914062 2.890625 9.492188 2.082031 7.796875 0.90625 C 6.054688 -0.257812 4.8125 -1.648438 4.0625 -3.265625 C 3.257812 -4.847656 2.847656 -6.597656 2.828125 -8.515625 C 2.804688 -10.378906 2.925781 -12.242188 3.1875 -14.109375 C 3.457031 -15.984375 3.804688 -17.847656 4.234375 -19.703125 C 4.648438 -21.515625 5.40625 -23.132812 6.5 -24.5625 C 7.582031 -25.957031 9.15625 -27.019531 11.21875 -27.75 C 13.226562 -28.476562 15.972656 -28.679688 19.453125 -28.359375 L 20.484375 -28.21875 C 23.554688 -27.789062 25.914062 -26.929688 27.5625 -25.640625 C 29.175781 -24.316406 30.34375 -22.785156 31.0625 -21.046875 C 31.757812 -19.335938 32.117188 -17.546875 32.140625 -15.671875 C 32.148438 -13.742188 32.0625 -11.96875 31.875 -10.34375 L 13.46875 -11.28125 C 13.28125 -9.914062 13.140625 -8.757812 13.046875 -7.8125 C 12.953125 -6.800781 12.972656 -5.960938 13.109375 -5.296875 C 13.222656 -4.617188 13.523438 -4.101562 14.015625 -3.75 C 14.429688 -3.375 15.117188 -3.117188 16.078125 -2.984375 C 17.035156 -2.847656 17.796875 -2.882812 18.359375 -3.09375 C 18.898438 -3.257812 19.332031 -3.609375 19.65625 -4.140625 C 19.976562 -4.609375 20.207031 -5.242188 20.34375 -6.046875 C 20.5 -6.828125 20.65625 -7.757812 20.8125 -8.84375 Z M 21.453125 -14.234375 L 21.390625 -14.25 L 21.53125 -18.734375 C 21.488281 -19.347656 21.242188 -19.914062 20.796875 -20.4375 C 20.335938 -20.9375 19.75 -21.238281 19.03125 -21.34375 C 18.601562 -21.394531 18.132812 -21.398438 17.625 -21.359375 C 17.132812 -21.296875 16.691406 -21.175781 16.296875 -21 C 15.867188 -20.820312 15.503906 -20.566406 15.203125 -20.234375 C 14.878906 -19.921875 14.679688 -19.503906 14.609375 -18.984375 L 13.9375 -14.5625 L 13.921875 -14.5 L 21.390625 -14.25 L 21.390625 -14.1875 Z M 21.453125 -14.234375 "/></g></g></g><g fill="#000000" fill-opacity="1"><g transform="translate(267.696212, 226.520205)"><g><path d="M 32.078125 -6.421875 C 31.671875 -4.660156 31.140625 -3.003906 30.484375 -1.453125 C 29.796875 0.128906 28.832031 1.453125 27.59375 2.515625 C 26.3125 3.566406 24.664062 4.273438 22.65625 4.640625 C 20.601562 5.035156 18 4.910156 14.84375 4.265625 C 11.726562 3.628906 9.351562 2.671875 7.71875 1.390625 C 6.050781 0.109375 4.894531 -1.351562 4.25 -3 C 3.550781 -4.632812 3.253906 -6.40625 3.359375 -8.3125 C 3.453125 -10.1875 3.6875 -12.046875 4.0625 -13.890625 C 4.445312 -15.742188 4.910156 -17.582031 5.453125 -19.40625 C 5.984375 -21.175781 6.835938 -22.742188 8.015625 -24.109375 C 9.191406 -25.429688 10.832031 -26.394531 12.9375 -27 C 14.976562 -27.601562 17.734375 -27.632812 21.203125 -27.09375 L 22.21875 -26.890625 C 25.257812 -26.265625 27.554688 -25.253906 29.109375 -23.859375 C 30.640625 -22.441406 31.707031 -20.84375 32.3125 -19.0625 C 32.894531 -17.3125 33.140625 -15.5 33.046875 -13.625 C 32.941406 -11.71875 32.742188 -9.953125 32.453125 -8.328125 L 14.15625 -10.421875 C 13.875 -9.078125 13.660156 -7.929688 13.515625 -6.984375 C 13.335938 -5.984375 13.304688 -5.144531 13.421875 -4.46875 C 13.492188 -3.789062 13.757812 -3.265625 14.21875 -2.890625 C 14.625 -2.460938 15.300781 -2.15625 16.25 -1.96875 C 17.195312 -1.769531 17.953125 -1.757812 18.515625 -1.9375 C 19.078125 -2.070312 19.53125 -2.390625 19.875 -2.890625 C 20.226562 -3.347656 20.5 -3.972656 20.6875 -4.765625 C 20.894531 -5.535156 21.109375 -6.457031 21.328125 -7.53125 Z M 22.3125 -12.875 L 22.25 -12.890625 L 22.671875 -17.359375 C 22.660156 -17.972656 22.445312 -18.550781 22.03125 -19.09375 C 21.613281 -19.625 21.046875 -19.960938 20.328125 -20.109375 C 19.898438 -20.191406 19.429688 -20.226562 18.921875 -20.21875 C 18.429688 -20.1875 17.984375 -20.09375 17.578125 -19.9375 C 17.148438 -19.78125 16.773438 -19.550781 16.453125 -19.25 C 16.109375 -18.945312 15.882812 -18.539062 15.78125 -18.03125 L 14.8125 -13.671875 L 14.796875 -13.609375 L 22.25 -12.890625 L 22.234375 -12.828125 Z M 22.3125 -12.875 "/></g></g></g><g fill="#000000" fill-opacity="1"><g transform="translate(296.981134, 232.55821)"><g><path d="M 8.046875 -27.96875 L 13.5625 -26.640625 L 16.296875 -37.96875 L 28.125 -36.34375 L 24.296875 -24.296875 L 32.1875 -22.6875 L 28.75 -11.609375 L 21.5625 -13.453125 L 16.8125 4.453125 L 5.71875 1.515625 L 10.921875 -16.03125 L 5.46875 -17.109375 Z M 8.046875 -27.96875 "/></g></g></g><g fill="#000000" fill-opacity="1"><g transform="translate(320.847012, 238.978618)"><g><path d="M 14 -39.28125 L 24.6875 -36.625 L 14.59375 -8 L 6.203125 -9.90625 Z M 3.375 -3.203125 C 3.96875 -5.117188 4.800781 -6.296875 5.875 -6.734375 C 6.882812 -7.171875 8.367188 -7.085938 10.328125 -6.484375 C 11.566406 -6.097656 12.488281 -5.664062 13.09375 -5.1875 C 13.65625 -4.675781 14.019531 -4.140625 14.1875 -3.578125 C 14.351562 -3.015625 14.382812 -2.441406 14.28125 -1.859375 C 14.175781 -1.265625 14.035156 -0.675781 13.859375 -0.09375 C 13.648438 0.5625 13.414062 1.1875 13.15625 1.78125 C 12.851562 2.363281 12.457031 2.828125 11.96875 3.171875 C 11.457031 3.566406 10.816406 3.796875 10.046875 3.859375 C 9.222656 3.941406 8.175781 3.785156 6.90625 3.390625 C 5.789062 3.046875 4.953125 2.617188 4.390625 2.109375 C 3.785156 1.628906 3.390625 1.082031 3.203125 0.46875 C 2.992188 -0.09375 2.925781 -0.695312 3 -1.34375 C 3.0625 -1.957031 3.1875 -2.578125 3.375 -3.203125 Z M 3.375 -3.203125 "/></g></g></g><path stroke-linecap="round" transform="matrix(-0.342038, 0.667465, -0.667465, -0.342038, 62.606654, 104.721899)" fill="none" stroke-linejoin="miter" d="M 3.001243 2.999392 L 32.369737 3.001996 " stroke="#000000" stroke-width="6" stroke-opacity="1" stroke-miterlimit="4"/><path stroke-linecap="round" transform="matrix(0.407023, 0.629946, -0.629946, 0.407023, 49.925917, 122.190458)" fill="none" stroke-linejoin="miter" d="M 2.999827 2.998833 L 17.849729 3.000871 " stroke="#000000" stroke-width="6" stroke-opacity="1" stroke-miterlimit="4"/><path stroke-linecap="round" transform="matrix(0, 0.75, -0.75, 0, 235.019768, 100.777017)" fill="none" stroke-linejoin="miter" d="M 4.000437 4.000315 L 31.37023 4.000315 " stroke="#000000" stroke-width="8" stroke-opacity="1" stroke-miterlimit="4"/><path stroke-linecap="round" transform="matrix(-0.312612, 0.681743, -0.681743, -0.312612, 235.857322, 124.467427)" fill="none" stroke-linejoin="miter" d="M 4.002206 4.000447 L 18.509958 4.000232 " stroke="#000000" stroke-width="8" stroke-opacity="1" stroke-miterlimit="4"/><path stroke-linecap="round" transform="matrix(0, 0.75, -0.75, 0, 143.143093, 100.777017)" fill="none" stroke-linejoin="miter" d="M 4.000437 3.998082 L 31.37023 3.998082 " stroke="#000000" stroke-width="8" stroke-opacity="1" stroke-miterlimit="4"/><path stroke-linecap="round" transform="matrix(0.315494, 0.680414, -0.680414, 0.315494, 142.177393, 121.771075)" fill="none" stroke-linejoin="miter" d="M 3.999614 3.998294 L 18.507711 3.996956 " stroke="#000000" stroke-width="8" stroke-opacity="1" stroke-miterlimit="4"/></svg>